<svg version="1.1" xmlns="http://www.w3.org/2000/svg" xmlns:xlink="http://www.w3.org/1999/xlink" width="162.63341" height="157.58194" viewBox="0,0,162.63341,157.58194"><defs><linearGradient x1="3624.10749" y1="-5838.1484" x2="3627.35993" y2="-5838.1484" gradientUnits="userSpaceOnUse" id="color-1"><stop offset="0" stop-color="#4c1e1e"/><stop offset="1" stop-color="#4c1616"/></linearGradient></defs><g transform="translate(-158.6833,-101.20903)"><g data-paper-data="{&quot;isPaintingLayer&quot;:true}" fill-rule="nonzero" stroke-miterlimit="10" stroke-dasharray="" stroke-dashoffset="0" style="mix-blend-mode: normal"><path d="" fill="none" stroke="#000000" stroke-width="3" stroke-linecap="round" stroke-linejoin="miter"/><path d="" data-paper-data="{&quot;index&quot;:null}" fill="#470000" stroke="#000000" stroke-width="3.5" stroke-linecap="butt" stroke-linejoin="miter"/><path d="" data-paper-data="{&quot;origRot&quot;:0}" fill="#cbab52" stroke="#000000" stroke-width="2" stroke-linecap="butt" stroke-linejoin="miter"/><path d="" fill="#ffffff" stroke="#000000" stroke-width="2" stroke-linecap="butt" stroke-linejoin="miter"/><path d="" fill="#cbab52" stroke="#000000" stroke-width="2" stroke-linecap="butt" stroke-linejoin="miter"/><path d="" fill="#cbab52" stroke="#000000" stroke-width="2" stroke-linecap="butt" stroke-linejoin="miter"/><path d="" fill="#cbab52" stroke="#000000" stroke-width="2" stroke-linecap="butt" stroke-linejoin="miter"/><path d="" fill="#000000" stroke="#000000" stroke-width="2" stroke-linecap="butt" stroke-linejoin="miter"/><path d="" fill="#000000" stroke="#000000" stroke-width="2" stroke-linecap="butt" stroke-linejoin="miter"/><path d="" fill="#000000" stroke="#000000" stroke-width="2" stroke-linecap="butt" stroke-linejoin="miter"/><path d="" fill="none" stroke="#000000" stroke-width="1.5" stroke-linecap="round" stroke-linejoin="miter"/><path d="" fill="none" stroke="#ffffff" stroke-width="0.53197" stroke-linecap="butt" stroke-linejoin="miter"/><path d="" fill="none" stroke="#ffffff" stroke-width="0.53197" stroke-linecap="butt" stroke-linejoin="miter"/><g stroke-linejoin="miter"><path d="" fill="url(#color-1)" stroke="none" stroke-width="1.04166" stroke-linecap="butt"/><path d="" fill="none" stroke="#a23f3f" stroke-width="0.81569" stroke-linecap="round"/></g><path d="M320.74563,132.79109c0,0 0,12.42243 0,21.81488c0,6.6253 0,18.97927 0,31.63845c0,20.06605 0,40.89889 0,40.89889c0,8.73267 -3.17503,16.2178 -9.52506,22.38979c-6.3501,6.17198 -13.98376,9.25787 -22.96841,9.25787h-97.07532c-8.98469,0 -16.61839,-3.08597 -22.9685,-9.25787c-6.35011,-6.17198 -9.52504,-13.65712 -9.52504,-22.38979c0,0 0,-9.09681 0,-21.47177c0,-9.16583 0,-20.13005 0,-30.52834c0,-15.57321 0,-29.87701 0,-34.96881c0,-3.81162 0,-7.38331 0,-7.38331c0,-8.6671 3.17503,-16.15213 9.52504,-22.32411c6.35011,-6.17198 13.98376,-9.25794 22.9685,-9.25794h97.14291c8.91723,0 16.6183,3.08604 22.96841,9.25794c6.3501,6.10636 9.52515,13.59145 9.45758,22.32411z" fill="#0089cc" stroke="none" stroke-width="0" stroke-linecap="butt" stroke-linejoin="miter"/><path d="M320.89497,154.0509c0,0 0,18.97927 0,31.63845c0,20.06605 0,40.89889 0,40.89889c0,8.73266 -3.17502,16.21779 -9.52504,22.38978c-6.3501,6.17198 -13.98377,9.25788 -22.96842,9.25788h-97.07531c-8.98469,0 -16.61839,-3.08599 -22.9685,-9.25788c-6.35011,-6.17198 -9.52505,-13.65711 -9.52505,-22.38978c0,0 0,-9.09681 0,-21.47177c0,-9.16583 0,-20.13006 0,-30.52834c0,-15.57321 0,-34.96882 0,-34.96882z" fill="#0092d9" stroke="none" stroke-width="0" stroke-linecap="butt" stroke-linejoin="miter"/><path d="M320.74562,186.24442v40.89889c0,8.73266 -3.17502,16.21779 -9.52504,22.38978c-6.3501,6.17198 -13.98376,9.25787 -22.96841,9.25787h-97.07531c-8.98469,0 -16.61839,-3.08598 -22.9685,-9.25787c-6.35011,-6.17198 -9.52505,-13.65711 -9.52505,-22.38978c0,0 0,-9.09682 0,-21.47177c0,-9.16583 0,-30.52834 0,-30.52834z" fill="#00a4e6" stroke="none" stroke-width="0" stroke-linecap="butt" stroke-linejoin="miter"/><path d="M321.31671,227.14331c0,0 -3.17502,16.2178 -9.52504,22.38978c-6.3501,6.17198 -13.98377,9.25787 -22.96842,9.25787h-97.07531c-8.98469,0 -16.61839,-3.08597 -22.9685,-9.25787c-6.35011,-6.17198 -9.52505,-13.65712 -9.52505,-22.38978v-21.47177z" fill="#00adf2" stroke="none" stroke-width="0" stroke-linecap="butt" stroke-linejoin="miter"/><path d="M278.22581,196.53714c0,0.25426 -11.45971,3.93991 -26.81662,3.93991c-16.14284,0 -29.22919,-4.23348 -29.22919,-9.45575c0,-5.22228 13.08635,-9.45577 29.22919,-9.45577c6.62088,0 15.10167,0.53345 19.52347,2.8285c3.40008,1.76473 5.24921,4.23311 6.23391,6.61902c0.85703,2.07655 1.05924,4.09068 1.05924,5.5241z" fill="#00cbcb" stroke="#000000" stroke-width="5" stroke-linecap="butt" stroke-linejoin="miter"/><g data-paper-data="{&quot;index&quot;:null}" stroke="#000000" stroke-linejoin="miter"><path d="M265.63363,248.68173c-3.98365,0.24386 -7.42532,-2.56577 -7.68717,-6.27547c-0.26187,-3.70971 2.08697,-7.09109 6.73891,-7.15853c5.03025,-0.07292 7.45493,2.98518 7.68717,6.27547c0.26187,3.70971 -2.75527,6.91469 -6.73891,7.15853z" fill="#ffca95" stroke-width="5" stroke-linecap="butt"/><g><g stroke-linecap="butt"><path d="M260.31954,237.79989l11.28629,-0.69088z" fill="#8cff93" stroke-width="3"/><path d="M257.95544,237.16155c-5.37856,-19.99533 -8.86547,-51.02078 -3.09323,-51.71321c2.17202,-0.34331 4.28958,1.57607 6.2634,4.85471c7.03591,11.68707 12.24544,40.64552 11.58451,45.95533c-0.28551,2.29386 -14.63331,1.35433 -14.75467,0.90318z" fill="#00cbcb" stroke-width="3.5"/></g><path d="M272.27154,240.03855" fill="none" stroke-width="5" stroke-linecap="round"/><path d="" fill="none" stroke-width="5" stroke-linecap="round"/></g></g><path d="M275.89915,153.08093c0,18.4329 -16.7165,33.99117 -37.06559,33.99117c-20.34909,0 -36.62499,-15.55828 -36.62499,-33.99117c0,-18.4329 16.49621,-33.37571 36.8453,-33.37571c20.34909,0 36.8453,14.94282 36.8453,33.37573z" fill="#ffca95" stroke="#000000" stroke-width="5" stroke-linecap="butt" stroke-linejoin="miter"/><path d="M243.76063,229.88778v0v-0.16887v0z" fill="#000000" stroke="none" stroke-width="0.40785" stroke-linecap="butt" stroke-linejoin="miter"/><path d="M221.28272,246.90772l1.40176,-61.77912c0,0 10.52578,2.31782 15.91926,2.31782c5.44967,0 16.61193,-2.31782 16.61193,-2.31782l0.69063,61.77913z" fill="#00cbcb" stroke="#000000" stroke-width="3.5" stroke-linecap="butt" stroke-linejoin="miter"/><path d="M250.6974,245.38278v-57.70903l2.90488,-0.62084l0.7778,58.32988z" fill="#006969" stroke="none" stroke-width="0" stroke-linecap="butt" stroke-linejoin="miter"/><path d="M243.73166,186.52705v-0.04869h3.45112v0.04869z" fill="#000000" stroke="none" stroke-width="0" stroke-linecap="butt" stroke-linejoin="miter"/><path d="M242.70945,188.52516l-0.22766,-1.98515l5.04341,-0.50158l0.22766,1.98515z" fill="#000000" stroke="none" stroke-width="0" stroke-linecap="butt" stroke-linejoin="miter"/><path d="M229.65474,187.86998l0.04678,-1.43775h3.36856v1.52488c0,0 -1.07606,0.39211 -1.63749,0.39211c-0.56143,0 -1.77785,-0.47925 -1.77785,-0.47925z" fill="#000000" stroke="none" stroke-width="0" stroke-linecap="butt" stroke-linejoin="miter"/><path d="M243.61655,218.03703v0v-0.14413v0z" fill="#000000" stroke="none" stroke-width="0.40785" stroke-linecap="butt" stroke-linejoin="miter"/><path d="M245.82322,206.6929v-19.66009" fill="none" stroke="#000000" stroke-width="2.5" stroke-linecap="round" stroke-linejoin="miter"/><path d="M231.82268,203.58867v-15.72807" fill="none" stroke="#000000" stroke-width="2.5" stroke-linecap="round" stroke-linejoin="miter"/><path d="M229.30406,200.27751c0,-1.37153 1.19396,-2.48338 2.66676,-2.48338c1.47282,0 2.66677,1.11185 2.66677,2.48338c0,1.37153 -1.19396,2.48339 -2.66677,2.48339c-1.47281,0 -2.66676,-1.11185 -2.66676,-2.48339z" fill="#000000" stroke="none" stroke-width="0" stroke-linecap="butt" stroke-linejoin="miter"/><path d="M243.15645,203.17477c0,-1.37153 1.19395,-2.48337 2.66677,-2.48337c1.47282,0 2.66676,1.11184 2.66676,2.48337c0,1.37153 -1.19394,2.48339 -2.66676,2.48339c-1.47282,0 -2.66677,-1.11185 -2.66677,-2.48339z" fill="#000000" stroke="none" stroke-width="0" stroke-linecap="butt" stroke-linejoin="miter"/><text transform="translate(226.625,220.95) scale(0.32986,0.32986)" font-size="40" xml:space="preserve" fill="#0092d9" fill-rule="nonzero" stroke="none" stroke-width="1" stroke-linecap="butt" stroke-linejoin="miter" stroke-miterlimit="10" stroke-dasharray="" stroke-dashoffset="0" font-family="Impact" font-weight="normal" text-anchor="start" style="mix-blend-mode: normal"><tspan x="0" dy="0">S4IL</tspan></text><path d="M274.74523,195.15302c0,0 -2.25933,-4.77269 -4.89792,-6.58312c-2.63859,-1.81043 -10.8418,-4.21642 -10.8418,-4.21642c0,0 4.23361,-0.40845 7.16735,0.31134c2.80216,0.6875 7.73685,2.78129 8.17771,4.47603c0.42874,0.46503 1.37943,2.65861 1.48626,3.15546c0.35206,1.6373 0.35334,2.58481 0.35334,2.58481z" fill="#006968" stroke="none" stroke-width="0" stroke-linecap="butt" stroke-linejoin="miter"/><path d="M268.06173,236.00511l-10.30997,-43.33267c0,0 -1.14764,-4.10041 -0.83493,-4.69943c0.36685,-0.1173 1.41059,0.51628 1.92368,1.64303c0.59874,0.97537 1.15387,1.69387 1.50412,2.67657c0.87719,2.02042 1.83853,3.93705 1.83853,3.93705c0,0 2.68947,7.17276 3.75718,10.84558c1.39215,4.11205 3.19966,13.50368 3.19966,13.50368c0,0 1.20674,5.5389 1.16702,6.24593c0.52777,2.10431 0.9599,8.84292 0.78469,8.98855z" data-paper-data="{&quot;index&quot;:null}" fill="#006968" stroke="none" stroke-width="0" stroke-linecap="butt" stroke-linejoin="miter"/><g data-paper-data="{&quot;index&quot;:null}" stroke="#000000" stroke-linejoin="miter"><path d="M203.9448,242.5232c0.23224,-3.29029 2.65692,-6.34839 7.68717,-6.27547c4.65194,0.06744 7.00078,3.44882 6.73891,7.15853c-0.26185,3.7097 -3.70352,6.51933 -7.68717,6.27547c-3.98364,-0.24384 -7.00078,-3.44882 -6.73891,-7.15853z" fill="#ffca95" stroke-width="5" stroke-linecap="butt"/><g><g stroke-linecap="butt"><path d="M215.9978,238.79989l-11.28629,-0.69088z" fill="#8cff93" stroke-width="3"/><path d="M218.36189,238.16156c-0.12136,0.45115 -14.46916,1.39068 -14.75467,-0.90318c-0.66093,-5.30981 4.5486,-34.26826 11.58451,-45.95533c1.97382,-3.27864 4.09138,-5.19802 6.2634,-4.85471c5.77224,0.69243 2.28533,31.71788 -3.09323,51.71321z" fill="#00cbcb" stroke-width="3.5"/></g><path d="M204.0458,241.03855" fill="none" stroke-width="5" stroke-linecap="round"/><path d="" fill="none" stroke-width="5" stroke-linecap="round"/></g></g><path d="M223.43549,153.34067v-12.02885h34.75v12.02885l-18.26603,2.67308z" fill="#ffca95" stroke="none" stroke-width="NaN" stroke-linecap="butt" stroke-linejoin="miter"/><path d="M215.99751,119.78746c0.96831,-0.61072 1.85375,-0.95903 2.95315,-1.30968c1.16541,-0.37169 2.41186,-0.85391 3.57718,-1.22552c1.0994,-0.35072 2.23823,-0.8062 3.32824,-1.18468c2.2372,-0.77798 4.34712,-1.36129 6.65534,-1.91017c1.28508,-0.30562 2.63729,-0.245 3.95121,-0.39135c1.17495,-0.1303 2.34456,-0.36046 3.52405,-0.43926c1.15326,-0.07684 2.33486,-0.22554 3.47086,-0.02804c1.16143,0.20194 2.20318,0.81944 3.31133,1.20568c1.23909,0.43261 2.48879,0.84976 3.73857,1.25357c1.38282,0.44708 2.76111,0.92291 4.16572,1.30153c1.24727,0.33594 2.57414,0.41798 3.79176,0.84237c1.14872,0.40079 2.27485,0.92261 3.25814,1.61688c2.07557,1.46516 2.77179,1.74808 4.75148,3.33096c0.49484,0.39596 1.92625,2.00703 1.92625,2.00703c0.37402,0.45915 1.9771,2.47463 3.0455,3.26196c0.95082,0.69065 2.21646,0.95775 3.25813,1.61688c0.96677,0.56736 1.76293,1.44933 2.77779,1.98035c1.01487,0.53095 3.21473,0.27697 3.31133,1.20568c0.09134,0.96981 -1.84656,1.87892 -2.93544,2.59129c-0.98758,0.59851 -2.08731,1.05924 -3.20324,1.3096c-1.15326,0.2045 -2.34943,0.07035 -3.47078,0.02805c-2.31761,-0.17638 -5.93843,-0.99959 -6.83539,-0.76644c-0.62472,0.1386 2.92646,0.49505 3.25813,1.61696c0.25686,1.03013 -0.9598,2.39559 -2.08099,2.68712c-4.54897,0.99184 -9.32824,0.74804 -13.98984,0.9346c-1.17472,0.03513 -2.32822,-0.09419 -3.41766,-0.38322c-2.13095,-0.61442 -5.32512,-2.39109 -6.19544,-2.36349c-0.64618,-0.03069 1.78965,1.57744 2.72459,2.39154c0.89753,0.76816 2.90574,1.66084 2.72459,2.39154c-0.21855,0.68469 -2.37606,0.52591 -3.52398,0.68925c-1.18541,0.1174 -2.35462,0.1952 -3.52406,0.18925c-2.32822,-0.09417 -4.71505,-0.06975 -6.83539,-0.76636c-2.23776,-0.79328 -3.75047,-3.50787 -6.03593,-3.59722c-1.15876,-0.08823 -0.24973,2.26659 -0.85259,3.24198c-0.6989,1.04808 -1.65384,2.73501 -2.93544,2.59129c-4.69934,-0.52686 -8.74845,-5.54596 -13.29855,-4.41146c-3.10331,0.78515 -2.10108,5.57017 -3.54657,7.98809c-1.09188,2.14971 -2.92735,6.64494 -4.02311,5.64007c-1.78001,-1.63226 -1.61368,-7.27008 -1.2288,-10.94337c0.00729,-3.44859 1.11568,-6.80549 2.38667,-10.07899c0.40448,-1.04356 1.3948,-1.80449 2.08108,-2.68713c1.91782,-2.72544 4.12397,-6.29099 5.17399,-7.52668c0,0 3.52684,-3.09572 4.78812,-3.90046z" fill="#762509" stroke="#000000" stroke-width="4.32336" stroke-linecap="round" stroke-linejoin="miter"/><path d="M235.21485,172.60061c0.75248,0.36153 1.7892,0.48569 2.37029,0.99036c0.08862,0.07697 0.16664,0.16278 0.23144,0.25964c0.01147,0.01714 0.02356,0.0499 0.03646,0.09572c0.21415,0.3453 0.33522,0.7379 0.33522,1.15428c0,0.11293 -0.00891,0.22412 -0.02616,0.33308c0.16737,0.69743 0.4035,1.36062 0.7515,1.3664c2.88386,0.04791 1.33231,-1.87834 3.46304,-2.81591c5.36753,-2.36184 6.05178,5.88744 -0.04672,7.46663c-3.17381,0.82185 -7.61247,0.3936 -8.90506,-2.51018c-0.41379,-0.92957 -2.43271,-4.31121 -0.77254,-5.10884z" fill="#000000" stroke="none" stroke-width="0.5" stroke-linecap="butt" stroke-linejoin="miter"/><path d="M222.72268,167.40627l0.48892,7.45645" fill="none" stroke="#ff4e80" stroke-width="2.5" stroke-linecap="round" stroke-linejoin="miter"/><path d="M219.08178,168.98223l0.27939,4.26083" fill="none" stroke="#ff4e80" stroke-width="2.5" stroke-linecap="round" stroke-linejoin="miter"/><path d="M226.85252,173.28674l-0.31431,-4.79343" fill="none" stroke="#ff4e80" stroke-width="2.5" stroke-linecap="round" stroke-linejoin="miter"/><path d="M256.44256,175.8931l-0.34485,-9.33802" fill="none" stroke="#ff4e80" stroke-width="2.5" stroke-linecap="round" stroke-linejoin="miter"/><path d="M259.7124,172.73678l-0.26192,-3.99453" fill="none" stroke="#ff4e80" stroke-width="2.5" stroke-linecap="round" stroke-linejoin="miter"/><path d="M252.52225,173.20824l0.02184,-3.74568" fill="none" stroke="#ff4e80" stroke-width="2.5" stroke-linecap="round" stroke-linejoin="miter"/><path d="M249.70964,152.7421c0.73875,-1.67981 2.33313,-2.84734 4.1856,-2.84734c2.55387,0 4.62656,2.21243 4.62656,4.93846c0,5.36872 -5.43573,7.03348 -8.81216,12.48238c-3.57128,-5.48264 -8.81214,-6.93665 -8.81214,-12.48238c0,-2.72603 2.07269,-4.93846 4.62655,-4.93846c1.85249,0 3.44686,1.16753 4.18557,2.84734z" fill="#ff0000" stroke="none" stroke-width="0" stroke-linecap="butt" stroke-linejoin="round"/><path d="M229.70964,153.2421c0.73875,-1.67981 2.33313,-2.84734 4.1856,-2.84734c2.55386,0 4.62656,2.21243 4.62656,4.93846c0,5.36872 -5.43573,7.03348 -8.81216,12.48238c-3.57129,-5.48264 -8.81214,-6.93665 -8.81214,-12.48238c0,-2.72603 2.07269,-4.93846 4.62655,-4.93846c1.85248,0 3.44686,1.16753 4.18557,2.84734z" fill="#ff0000" stroke="none" stroke-width="0" stroke-linecap="butt" stroke-linejoin="round"/></g></g></svg>