<svg version="1.1" xmlns="http://www.w3.org/2000/svg" xmlns:xlink="http://www.w3.org/1999/xlink" width="183" height="183" viewBox="0,0,183,183"><g transform="translate(-148.5,-88.5)"><g data-paper-data="{&quot;isPaintingLayer&quot;:true}" fill-rule="nonzero" stroke-linejoin="miter" stroke-dasharray="" stroke-dashoffset="0" style="mix-blend-mode: normal"><path d="M240,129.2884c27.99281,0 50.7116,22.7188 50.7116,50.7116c0,27.99281 -22.7188,50.7116 -50.7116,50.7116c-27.99281,0 -50.7116,-22.7188 -50.7116,-50.7116c0,-27.99281 22.7188,-50.7116 50.7116,-50.7116z" fill="#000000" stroke="#ffffff" stroke-width="4" stroke-linecap="round" stroke-miterlimit="4"/><path d="M148.5,271.5v-183h183v183z" fill="none" stroke="none" stroke-width="0" stroke-linecap="butt" stroke-miterlimit="10"/><path d="M209.17993,162.99585c0,-1.56519 1.26883,-2.83404 2.83404,-2.83404h5.66804c1.41701,0 2.12553,0.70851 2.83405,1.41701l2.83404,2.83404c0.70851,0.70851 1.41701,1.41701 2.83404,1.41701h8.50206c1.41701,0 2.12551,-0.7085 2.83405,-1.41701l2.83404,-2.83404c0.70851,-0.70851 1.41701,-1.41701 2.83404,-1.41701h24.7977c1.56519,0 2.83404,1.26884 2.83404,2.83404v28.34023c0,1.56519 -1.26883,2.83404 -2.83404,2.83404h-24.7977c-1.41701,0 -2.12551,0.7085 -2.83404,1.41701l-2.83404,2.83404c-0.70851,0.70851 -1.41701,1.41701 -2.83405,1.41701h-8.50206c-1.41701,0 -2.12551,-0.70851 -2.83404,-1.41701l-2.83404,-2.83404c-0.70851,-0.70851 -1.41702,-1.41701 -2.83405,-1.41701h-5.66804c-1.56519,0 -2.83404,-1.26884 -2.83404,-2.83404z" fill="#ffffff" stroke="#ffffff" stroke-width="8" stroke-linecap="butt" stroke-miterlimit="10"/><path d="M209.17993,162.99586c0,-1.56519 1.26884,-2.83404 2.83404,-2.83404h5.66804c1.41701,0 2.12552,0.7085 2.83404,1.41701l2.83404,2.83404c0.7085,0.7085 1.41701,1.41701 2.83404,1.41701h8.50206c1.41701,0 2.12551,-0.7085 2.83404,-1.41701l2.83404,-2.83404c0.7085,-0.7085 1.41701,-1.41701 2.83404,-1.41701h24.7977c1.56519,0 2.83404,1.26884 2.83404,2.83404v28.34023c0,1.56519 -1.26884,2.83404 -2.83404,2.83404h-24.7977c-1.41701,0 -2.12551,0.7085 -2.83404,1.41701l-2.83404,2.83404c-0.7085,0.7085 -1.41701,1.41701 -2.83404,1.41701h-8.50206c-1.41701,0 -2.12551,-0.7085 -2.83404,-1.41701l-2.83404,-2.83404c-0.7085,-0.7085 -1.41702,-1.41701 -2.83404,-1.41701h-5.66804c-1.56519,0 -2.83404,-1.26884 -2.83404,-2.83404z" fill="#ffffff" stroke="#000000" stroke-width="4" stroke-linecap="butt" stroke-miterlimit="10"/></g></g></svg>