<svg version="1.1" xmlns="http://www.w3.org/2000/svg" xmlns:xlink="http://www.w3.org/1999/xlink" width="170.92157" height="157.58194" viewBox="0,0,170.92157,157.58194"><defs><linearGradient x1="3624.10749" y1="-5838.1484" x2="3627.35993" y2="-5838.1484" gradientUnits="userSpaceOnUse" id="color-1"><stop offset="0" stop-color="#4c1e1e"/><stop offset="1" stop-color="#4c1616"/></linearGradient></defs><g transform="translate(-158.6833,-101.20903)"><g data-paper-data="{&quot;isPaintingLayer&quot;:true}" fill-rule="nonzero" stroke-linejoin="miter" stroke-miterlimit="10" stroke-dasharray="" stroke-dashoffset="0" style="mix-blend-mode: normal"><path d="" fill="none" stroke="#000000" stroke-width="3" stroke-linecap="round"/><path d="" data-paper-data="{&quot;index&quot;:null}" fill="#470000" stroke="#000000" stroke-width="3.5" stroke-linecap="butt"/><path d="" data-paper-data="{&quot;origRot&quot;:0}" fill="#cbab52" stroke="#000000" stroke-width="2" stroke-linecap="butt"/><path d="" fill="#ffffff" stroke="#000000" stroke-width="2" stroke-linecap="butt"/><path d="" fill="#cbab52" stroke="#000000" stroke-width="2" stroke-linecap="butt"/><path d="" fill="#cbab52" stroke="#000000" stroke-width="2" stroke-linecap="butt"/><path d="" fill="#cbab52" stroke="#000000" stroke-width="2" stroke-linecap="butt"/><path d="" fill="#000000" stroke="#000000" stroke-width="2" stroke-linecap="butt"/><path d="" fill="#000000" stroke="#000000" stroke-width="2" stroke-linecap="butt"/><path d="" fill="#000000" stroke="#000000" stroke-width="2" stroke-linecap="butt"/><path d="" fill="none" stroke="#000000" stroke-width="1.5" stroke-linecap="round"/><path d="" fill="none" stroke="#ffffff" stroke-width="0.53197" stroke-linecap="butt"/><path d="" fill="none" stroke="#ffffff" stroke-width="0.53197" stroke-linecap="butt"/><g><path d="" fill="url(#color-1)" stroke="none" stroke-width="1.04166" stroke-linecap="butt"/><path d="" fill="none" stroke="#a23f3f" stroke-width="0.81569" stroke-linecap="round"/></g><path d="M320.74563,132.79109c0,0 0,12.42243 0,21.81488c0,6.6253 0,18.97927 0,31.63845c0,20.06605 0,40.89889 0,40.89889c0,8.73267 -3.17503,16.2178 -9.52506,22.38979c-6.3501,6.17198 -13.98376,9.25787 -22.96841,9.25787h-97.07532c-8.98469,0 -16.61839,-3.08597 -22.9685,-9.25787c-6.35011,-6.17198 -9.52504,-13.65712 -9.52504,-22.38979c0,0 0,-9.09681 0,-21.47177c0,-9.16583 0,-20.13005 0,-30.52834c0,-15.57321 0,-29.87701 0,-34.96881c0,-3.81162 0,-7.38331 0,-7.38331c0,-8.6671 3.17503,-16.15213 9.52504,-22.32411c6.35011,-6.17198 13.98376,-9.25794 22.9685,-9.25794h97.14291c8.91723,0 16.6183,3.08604 22.96841,9.25794c6.3501,6.10636 9.52515,13.59145 9.45758,22.32411z" fill="#0089cc" stroke="none" stroke-width="0" stroke-linecap="butt"/><path d="M320.89497,154.0509c0,0 0,18.97927 0,31.63845c0,20.06605 0,40.89889 0,40.89889c0,8.73266 -3.17502,16.21779 -9.52504,22.38978c-6.3501,6.17198 -13.98377,9.25788 -22.96842,9.25788h-97.07531c-8.98469,0 -16.61839,-3.08599 -22.9685,-9.25788c-6.35011,-6.17198 -9.52505,-13.65711 -9.52505,-22.38978c0,0 0,-9.09681 0,-21.47177c0,-9.16583 0,-20.13006 0,-30.52834c0,-15.57321 0,-34.96882 0,-34.96882z" fill="#0092d9" stroke="none" stroke-width="0" stroke-linecap="butt"/><path d="M320.74562,186.24442v40.89889c0,8.73266 -3.17502,16.21779 -9.52504,22.38978c-6.3501,6.17198 -13.98376,9.25787 -22.96841,9.25787h-97.07531c-8.98469,0 -16.61839,-3.08598 -22.9685,-9.25787c-6.35011,-6.17198 -9.52505,-13.65711 -9.52505,-22.38978c0,0 0,-9.09682 0,-21.47177c0,-9.16583 0,-30.52834 0,-30.52834z" fill="#00a4e6" stroke="none" stroke-width="0" stroke-linecap="butt"/><path d="M321.51671,227.14331c0,0 -3.17502,16.2178 -9.52504,22.38978c-6.3501,6.17198 -13.98377,9.25787 -22.96842,9.25787h-97.07531c-8.98469,0 -16.61839,-3.08597 -22.9685,-9.25787c-6.35011,-6.17198 -9.52505,-13.65712 -9.52505,-22.38978v-21.47177z" fill="#00adf2" stroke="none" stroke-width="0" stroke-linecap="butt"/><path d="M294.91531,189.17625c-5.46456,0.33451 -10.18566,-3.51959 -10.54485,-8.60835c-0.35922,-5.08878 2.86279,-9.72718 9.24408,-9.81969c6.90023,-0.10003 10.22627,4.09491 10.54485,8.60835c0.35922,5.08878 -3.77953,9.4852 -9.24408,9.81969z" fill="#ffca95" stroke="#000000" stroke-width="6" stroke-linecap="butt"/><path d="M293.5287,177.25189c-1.81115,0 -1.81115,-1.81115 -1.81115,-1.81115v-0.36223c0,-3.63938 -1.02011,-8.75582 -0.1846,-12.19823c0.09465,-0.38998 -0.23557,0.77052 -0.40988,1.13199c-0.45405,0.9416 -0.50158,2.05188 -0.49221,3.09719c0.02383,2.65588 0,5.31307 0,7.96904c0,0 0,1.81115 -1.81115,1.81115c-1.81115,0 -1.81115,-1.81115 -1.81115,-1.81115c0,-3.77644 -1.02344,-9.48288 0.95671,-12.84088c0.99255,-1.6832 2.84896,-3.88076 5.38579,-2.4903c1.06109,0.58159 1.14744,2.13961 1.56587,3.27499c1.27825,3.46848 0.4229,8.39349 0.4229,12.05619v0.36223c0,0 0,1.81115 -1.81115,1.81115z" fill="#ffca95" stroke="#000000" stroke-width="3" stroke-linecap="butt"/><path d="M294.21842,173.11165c0.2898,1.42509 0.50493,2.84404 0.53487,4.25513c0,0 0,1.9132 -2.67433,1.9132c-2.67432,0 -2.67433,-1.9132 -2.67433,-1.9132c0.01577,-0.50724 0.00053,-1.01425 -0.03873,-1.52136c-0.49612,-0.53478 -0.49611,-1.15709 -0.49611,-1.15709v-1.91319c0,-0.0375 -0.69607,-6.64119 -0.6969,-6.68061c0.17401,-1.08618 0.23023,-1.81784 0.23023,-1.81784l0.98285,-2.96284c0.48663,-0.47482 1.27206,-0.78308 2.15813,-0.78308c1.47699,0 2.42885,0.85657 2.42885,1.91319l0.24546,1.91319c0,0 0,5.37693 0,8.41802z" fill="#ffca95" stroke="none" stroke-width="0.5" stroke-linecap="butt"/><path d="M301.41175,177.48814c1.37915,3.74525 -0.32207,7.84951 -3.79976,9.16711c-3.4777,1.31762 -7.39171,0.04039 -8.79407,-4.39565c-1.51641,-4.7968 0.71524,-7.99848 3.79976,-9.16711c3.4777,-1.31762 7.41494,0.65041 8.79407,4.39565z" fill="#ffca95" stroke="#ffca95" stroke-width="5" stroke-linecap="butt"/><path d="M291.66063,186.84994l-3.90733,-10.61086z" fill="#8cff93" stroke="#000000" stroke-width="3" stroke-linecap="butt"/><path d="M291.7291,189.29774c-17.60397,10.90149 -46.31613,23.16319 -48.63925,17.8339c-0.95343,-1.98155 0.27593,-4.56162 2.84846,-7.39491c9.17005,-10.09959 35.40714,-23.41674 40.68272,-24.31069c2.27907,-0.3862 5.50527,13.62572 5.10807,13.87169z" fill="#00cbcb" stroke="#000000" stroke-width="3.5" stroke-linecap="butt"/><path d="M290.36765,174.75903" fill="none" stroke="#000000" stroke-width="5" stroke-linecap="round"/><path d="" fill="none" stroke="#000000" stroke-width="5" stroke-linecap="round"/><path d="M193.84667,196.60382c0,-1.43342 0.20221,-3.44755 1.05924,-5.5241c0.9847,-2.38591 2.83383,-4.85429 6.23391,-6.61902c4.4218,-2.29505 12.90259,-2.8285 19.52347,-2.8285c16.14284,0 29.22919,4.23349 29.22919,9.45577c0,5.22227 -13.08635,9.45575 -29.22919,9.45575c-15.35691,0 -26.81662,-3.68565 -26.81662,-3.93991z" data-paper-data="{&quot;index&quot;:null}" fill="#00cbcb" stroke="#000000" stroke-width="5" stroke-linecap="butt"/><path d="M275.89915,153.08093c0,18.4329 -16.7165,33.99117 -37.06559,33.99117c-20.34909,0 -36.62499,-15.55828 -36.62499,-33.99117c0,-18.4329 16.49621,-33.37571 36.8453,-33.37571c20.34909,0 36.8453,14.94282 36.8453,33.37573z" fill="#ffca95" stroke="#000000" stroke-width="5" stroke-linecap="butt"/><path d="M243.76063,229.71891v0v0.16887v0z" fill="#000000" stroke="none" stroke-width="0.40785" stroke-linecap="butt"/><path d="M221.28272,246.90772l1.40176,-61.77912c0,0 10.52578,2.31782 15.91926,2.31782c5.44967,0 16.61193,-2.31782 16.61193,-2.31782l0.69063,61.77913z" fill="#00cbcb" stroke="#000000" stroke-width="3.5" stroke-linecap="butt"/><path d="M250.6974,245.38278v-57.70903l2.90488,-0.62084l0.7778,58.32988z" fill="#006969" stroke="none" stroke-width="0" stroke-linecap="butt"/><path d="M243.73166,186.52705v-0.04869h3.45112v0.04869z" fill="#000000" stroke="none" stroke-width="0" stroke-linecap="butt"/><path d="M242.70945,188.52516l-0.22766,-1.98515l5.04341,-0.50158l0.22766,1.98515z" fill="#000000" stroke="none" stroke-width="0" stroke-linecap="butt"/><path d="M229.65474,187.86998l0.04678,-1.43775h3.36856v1.52488c0,0 -1.07606,0.39211 -1.63749,0.39211c-0.56143,0 -1.77785,-0.47925 -1.77785,-0.47925z" fill="#000000" stroke="none" stroke-width="0" stroke-linecap="butt"/><path d="M212.38483,122.33078c0.47961,0.01124 2.1014,-1.73858 3.36268,-2.54332c0.96831,-0.61072 2.10375,-0.95903 3.20315,-1.30968c1.16541,-0.37169 2.41186,-0.47891 3.57718,-0.85052c1.0994,-0.35072 2.11323,-0.9312 3.20324,-1.30968c2.2372,-0.77798 4.47212,-1.61129 6.78034,-2.16017c1.28508,-0.30562 2.63729,-0.245 3.95121,-0.39135c1.17495,-0.1303 2.34456,-0.36046 3.52405,-0.43926c1.15326,-0.07684 2.33486,-0.22554 3.47086,-0.02804c1.16143,0.20194 2.20318,0.81944 3.31133,1.20568c1.23909,0.43261 2.48879,0.84976 3.73857,1.25357c1.38282,0.44708 2.76111,0.92291 4.16572,1.30153c1.24727,0.33594 2.57414,0.41798 3.79176,0.84237c1.14872,0.40079 2.27485,0.92261 3.25814,1.61688c2.07557,1.46516 3.89679,3.24808 5.87648,4.83096c0.49484,0.39596 0.80125,0.50703 0.80125,0.50703c0.37402,0.45915 1.9771,2.47463 3.0455,3.26196c0.95082,0.69065 2.21646,0.95775 3.25813,1.61688c0.96677,0.56736 1.76293,1.44933 2.77779,1.98035c1.01487,0.53095 3.21473,0.27697 3.31133,1.20568c0.09134,0.96981 -1.84656,1.87892 -2.93544,2.59129c-0.98758,0.59851 -2.08731,1.05924 -3.20324,1.3096c-1.15326,0.2045 -2.34943,0.07035 -3.47078,0.02805c-2.31761,-0.17638 -5.93843,-0.99959 -6.83539,-0.76644c-0.62472,0.1386 2.92646,0.49505 3.25813,1.61696c0.25686,1.03013 -0.9598,2.39559 -2.08099,2.68712c-4.54897,0.99184 -9.32824,0.74804 -13.98984,0.9346c-1.17472,0.03513 -2.32822,-0.09419 -3.41766,-0.38322c-2.13095,-0.61442 -5.32512,-2.39109 -6.19544,-2.36349c-0.64618,-0.03069 1.78965,1.57744 2.72459,2.39154c0.89753,0.76816 2.90574,1.66084 2.72459,2.39154c-0.21855,0.68469 -2.37606,0.27591 -3.52398,0.43925c-1.18541,0.1174 -2.35462,0.4452 -3.52406,0.43925c-2.32822,-0.09417 -4.71505,-0.06975 -6.83539,-0.76636c-2.23776,-0.79328 -3.75047,-3.50787 -6.03593,-3.59722c-1.15876,-0.08823 -0.24973,2.26659 -0.85259,3.24198c-0.6989,1.04808 -1.65384,2.73501 -2.93544,2.59129c-4.69934,-0.52686 -8.74845,-5.54596 -13.29855,-4.41146c-3.10331,0.78515 -2.10108,5.57017 -3.54657,7.98809c-1.09188,2.14971 -2.92735,6.64494 -4.02311,5.64007c-1.78001,-1.63226 -1.61368,-7.27008 -1.2288,-10.94337c0.00729,-3.44859 1.11568,-6.80549 2.38667,-10.07899c0.40448,-1.04356 1.3948,-1.80449 2.08108,-2.68713c1.91782,-2.72544 5.12397,-6.29099 6.17399,-7.52668z" fill="#762509" stroke="#000000" stroke-width="4.32336" stroke-linecap="round"/><path d="M243.61655,217.8929v0v0.14413v0z" fill="#000000" stroke="none" stroke-width="0.40785" stroke-linecap="butt"/><path d="M245.82322,187.03281v19.66009" fill="none" stroke="#000000" stroke-width="2.5" stroke-linecap="round"/><path d="M231.82268,187.8606v15.72807" fill="none" stroke="#000000" stroke-width="2.5" stroke-linecap="round"/><path d="M229.30406,200.27751c0,-1.37153 1.19396,-2.48338 2.66676,-2.48338c1.47282,0 2.66677,1.11185 2.66677,2.48338c0,1.37153 -1.19396,2.48339 -2.66677,2.48339c-1.47281,0 -2.66676,-1.11185 -2.66676,-2.48339z" fill="#000000" stroke="none" stroke-width="0" stroke-linecap="butt"/><path d="M243.15645,203.17477c0,-1.37153 1.19395,-2.48337 2.66677,-2.48337c1.47282,0 2.66676,1.11184 2.66676,2.48337c0,1.37153 -1.19394,2.48339 -2.66676,2.48339c-1.47282,0 -2.66677,-1.11185 -2.66677,-2.48339z" fill="#000000" stroke="none" stroke-width="0" stroke-linecap="butt"/><text transform="translate(226.625,220.95) scale(0.32986,0.32986)" font-size="40" xml:space="preserve" fill="#0092d9" fill-rule="nonzero" stroke="none" stroke-width="1" stroke-linecap="butt" stroke-linejoin="miter" stroke-miterlimit="10" stroke-dasharray="" stroke-dashoffset="0" font-family="Impact" font-weight="normal" text-anchor="start" style="mix-blend-mode: normal"><tspan x="0" dy="0">S4IL</tspan></text><g data-paper-data="{&quot;index&quot;:null}" stroke="#000000"><path d="M203.9448,242.5232c0.23224,-3.29029 2.65692,-6.34839 7.68717,-6.27547c4.65194,0.06744 7.00078,3.44882 6.73891,7.15853c-0.26185,3.7097 -3.70352,6.51933 -7.68717,6.27547c-3.98364,-0.24384 -7.00078,-3.44882 -6.73891,-7.15853z" fill="#ffca95" stroke-width="5" stroke-linecap="butt"/><g><g stroke-linecap="butt"><path d="M215.9978,238.79989l-11.28629,-0.69088z" fill="#8cff93" stroke-width="3"/><path d="M218.36189,238.16156c-0.12136,0.45115 -14.46916,1.39068 -14.75467,-0.90318c-0.66093,-5.30981 4.5486,-34.26826 11.58451,-45.95533c1.97382,-3.27864 4.09138,-5.19802 6.2634,-4.85471c5.77224,0.69243 2.28533,31.71788 -3.09323,51.71321z" fill="#00cbcb" stroke-width="3.5"/></g><path d="M204.0458,241.03855" fill="none" stroke-width="5" stroke-linecap="round"/><path d="" fill="none" stroke-width="5" stroke-linecap="round"/></g></g><path d="M329.60487,243.03855" fill="none" stroke="#000000" stroke-width="5" stroke-linecap="round"/><path d="" fill="none" stroke="#000000" stroke-width="5" stroke-linecap="round"/><path d="M196.40551,195.26846c0,0 0.00134,-0.99162 0.36979,-2.70514c0.1118,-0.51998 1.10675,-2.81568 1.55545,-3.30236c0.46138,-1.77364 5.6258,-3.9649 8.55841,-4.6844c3.07031,-0.7533 7.50101,-0.32583 7.50101,-0.32583c0,0 -8.5851,2.518 -11.34652,4.41271c-2.76142,1.89471 -5.12593,6.88958 -5.12593,6.88958z" data-paper-data="{&quot;index&quot;:null}" fill="#006968" stroke="none" stroke-width="0" stroke-linecap="butt"/><path d="M227.0392,173.16147c4.43979,-1.86237 10.0332,-1.07715 14.6201,-0.99201c3.92727,0.04353 10.63608,-0.74127 11.76208,1.36174c0.94278,2.00445 -5.01982,5.42956 -8.088,7.41584c-1.49733,0.96859 -3.28123,1.2493 -5.20996,1.57141c-2.30529,0.34373 -4.807,0.52298 -7.0267,-0.16377c-1.95157,-0.61024 -4.06794,-1.82294 -5.28538,-3.51546c-0.97161,-1.6324 -2.63442,-4.88489 -0.77215,-5.67777z" fill="#6a3a37" stroke="#000000" stroke-width="0" stroke-linecap="round"/><path d="M235.8149,177.63133c0.68056,0.00854 3.23206,0.80981 3.79359,1.09458c0.78907,0.38309 1.40438,1.07345 1.93473,1.75915c0.239,0.30883 0.62821,0.83966 0.34142,1.13365c-0.51138,0.45501 -1.33762,0.36351 -2.04853,0.46907c-1.22836,0.17981 -2.47645,0.24475 -3.71771,0.27364c-0.86493,0.01957 -1.66084,0.10789 -2.38996,-0.03908c-1.15856,-0.22206 -2.29588,-0.50977 -3.22454,-1.0555c-1.07207,-0.68484 -3.64563,-2.08981 -2.84519,-2.65822c1.61228,-1.13443 5.56443,-1.00852 8.15621,-0.97729z" fill="#ab5e58" stroke="none" stroke-width="1.05463" stroke-linecap="round"/><path d="M227.153,173.16147c6.77294,-0.87527 7.78979,-0.88478 12.37668,-0.79964c3.92727,0.04353 12.78975,-0.57469 14.0055,1.16937c0.94278,2.00445 -3.4235,5.92073 -7.47403,7.78422c-1.49733,0.96859 -3.89519,0.88092 -5.82393,1.20303c-2.30529,0.34373 -4.807,0.52298 -7.02671,-0.16377c-1.95157,-0.61024 -4.06794,-1.82294 -5.28538,-3.51546c-0.97161,-1.6324 -2.63441,-4.88489 -0.77215,-5.67777z" fill="none" stroke="#000000" stroke-width="3" stroke-linecap="round"/><path d="M235.55631,158.05238c0,6.10266 -2.18886,11.04985 -4.88894,11.04985c-2.70008,0 -4.88894,-4.94719 -4.88894,-11.04985c0,-6.10266 2.18884,-11.04985 4.88894,-11.04985c2.70008,0 4.88894,4.94717 4.88894,11.04985z" fill="#000000" stroke="#000000" stroke-width="0" stroke-linecap="butt"/><path d="M253.74993,157.9482c0,6.10266 -2.18886,11.04984 -4.88894,11.04984c-2.70007,0 -4.88894,-4.94718 -4.88894,-11.04983c0,-6.10266 2.18884,-11.04986 4.88894,-11.04986c2.70007,0 4.88894,4.94718 4.88894,11.04986z" fill="#000000" stroke="#000000" stroke-width="0" stroke-linecap="butt"/><text transform="translate(268.99983,232.06669) rotate(0.60083) scale(0.52809,0.52809)" font-size="40" xml:space="preserve" fill="#ff0000" fill-rule="nonzero" stroke="#ffffff" stroke-width="10" stroke-linecap="butt" stroke-linejoin="miter" stroke-miterlimit="10" stroke-dasharray="" stroke-dashoffset="0" font-family="Sans Serif" font-weight="normal" text-anchor="start" style="mix-blend-mode: normal"><tspan x="0" dy="0">Yes!</tspan></text><text transform="translate(268.99983,232.06669) rotate(0.60083) scale(0.52809,0.52809)" font-size="40" xml:space="preserve" fill="#ff0000" fill-rule="nonzero" stroke="#ff0000" stroke-width="3" stroke-linecap="butt" stroke-linejoin="miter" stroke-miterlimit="10" stroke-dasharray="" stroke-dashoffset="0" font-family="Sans Serif" font-weight="normal" text-anchor="start" style="mix-blend-mode: normal"><tspan x="0" dy="0">Yes!</tspan></text></g></g></svg>